<svg id="Group_571111" data-name="Group 571111" xmlns="http://www.w3.org/2000/svg" xmlns:xlink="http://www.w3.org/1999/xlink" width="27" height="27" viewBox="0 0 27 27">
  <defs>
    <clipPath id="clip-path">
      <rect id="Rectangle_185564" data-name="Rectangle 185564" width="27" height="27" fill="none"/>
    </clipPath>
  </defs>
  <g id="Group_571110" data-name="Group 571110" clip-path="url(#clip-path)">
    <path id="Path_251713" data-name="Path 251713" d="M27,4.421v18.1a1.791,1.791,0,0,1-2.086,1.425H1.948A1.723,1.723,0,0,1,.053,22.062V12.407q0-3.813,0-7.628a1.738,1.738,0,0,1,.47-1.246,1.814,1.814,0,0,1,1.4-.541q11.6.007,23.2,0c.07,0,.141,0,.211,0a1.656,1.656,0,0,1,1.439.868A4.16,4.16,0,0,1,27,4.421M25.274,17.133c.007-.146.014-.23.014-.314q0-5.906.006-11.813c0-.236-.056-.31-.3-.31q-11.457.01-22.916.006c-.1,0-.2.016-.284.023V16.75c.092-.1.15-.165.206-.229q2.986-3.469,5.978-6.934a1.752,1.752,0,0,1,.646-.469,1.269,1.269,0,0,1,1.5.516q3.216,3.843,6.433,7.685c.059.07.121.137.191.217,1.053-1.055,2.108-2.06,3.1-3.124a1.469,1.469,0,0,1,2.409-.04c.958.936,1.976,1.812,3.02,2.761" fill="#0066cd"/>
    <path id="Path_251714" data-name="Path 251714" d="M27,4.421a4.147,4.147,0,0,0-.226-.554A1.657,1.657,0,0,0,25.334,3c-.07,0-.14,0-.21,0q-11.6,0-23.2,0a1.81,1.81,0,0,0-1.4.54,1.738,1.738,0,0,0-.47,1.246q0,3.815,0,7.629,0,4.827,0,9.654a1.723,1.723,0,0,0,1.895,1.889H24.913A1.792,1.792,0,0,0,27,22.526V27H0V0H27Z" fill="#fff"/>
    <path id="Path_251715" data-name="Path 251715" d="M25.274,17.134c-1.044-.949-2.061-1.825-3.02-2.762a1.469,1.469,0,0,0-2.409.041c-.993,1.063-2.048,2.068-3.1,3.123-.07-.079-.132-.146-.191-.216L10.12,9.635a1.271,1.271,0,0,0-1.5-.517,1.774,1.774,0,0,0-.646.47q-3,3.457-5.977,6.933c-.056.065-.115.128-.207.23V4.725c.087-.007.186-.022.285-.022Q13.532,4.7,24.99,4.7c.248,0,.3.075.3.311q-.01,5.907-.005,11.813c0,.084-.008.168-.015.314m-4.891-5.591a2.35,2.35,0,1,0-2.367-2.348,2.355,2.355,0,0,0,2.367,2.348" fill="#fff"/>
    <path id="Path_251716" data-name="Path 251716" d="M20.383,11.543A2.35,2.35,0,1,1,22.726,9.2a2.354,2.354,0,0,1-2.343,2.347" fill="#0066cd"/>
  </g>
</svg>
