<svg xmlns="http://www.w3.org/2000/svg" xmlns:xlink="http://www.w3.org/1999/xlink" width="93" height="93" viewBox="0 0 93 93">
  <defs>
    <clipPath id="clip-path">
      <rect id="Rectangle_177002" data-name="Rectangle 177002" width="46.206" height="39.399" fill="#0171e7"/>
    </clipPath>
  </defs>
  <g id="Group_562996" data-name="Group 562996" transform="translate(-104 -20.75)">
    <circle id="Ellipse_2677" data-name="Ellipse 2677" cx="46.5" cy="46.5" r="46.5" transform="translate(104 20.75)" fill="#e5f0fd"/>
    <g id="Group_549844" data-name="Group 549844" transform="translate(126.896 47.551)">
      <g id="Group_549843" data-name="Group 549843" clip-path="url(#clip-path)">
        <path id="Path_200500" data-name="Path 200500" d="M7.009,15.7l-5.116,4.52c-.161.143-.326.281-.486.426a.8.8,0,0,1-.91.2A.83.83,0,0,1,0,20q0-1.317,0-2.635c0-1.127.006-2.254,0-3.381a1.172,1.172,0,0,1,.426-.956c2.016-1.772,4.02-3.557,6.033-5.332.543-.478.928-.414,1.454.231q4.238,5.2,8.471,10.406c.124.153.251.3.4.487L37.142,3.725c-.113-.13-.2-.242-.3-.343-.513-.518-1.063-1-1.529-1.562a1.255,1.255,0,0,1-.225-.887c.05-.354.388-.5.755-.515Q40.535.213,45.227,0c.714-.031,1.008.26.977.979q-.2,4.668-.42,9.335a.825.825,0,0,1-1.49.557c-.814-.825-1.634-1.644-2.477-2.491-.189.136-.361.256-.528.381L17.528,26.6c-.093.07-.185.14-.279.208-.59.426-.946.382-1.4-.179q-2.5-3.091-5-6.183L7.009,15.7" transform="translate(0 0)" fill="#0171e7"/>
        <path id="Path_200501" data-name="Path 200501" d="M287.268,123.328q0-5.593,0-11.186c0-.915.228-1.143,1.142-1.143q2.51,0,5.02,0c.715,0,.994.278.994.992q0,11.335,0,22.67c0,.714-.28.993-.993.994q-2.585.006-5.169,0c-.714,0-.993-.279-.993-.993q0-5.667,0-11.335" transform="translate(-249.124 -96.26)" fill="#0171e7"/>
        <path id="Path_200502" data-name="Path 200502" d="M12.919,184.9q0,3.43,0,6.861c0,.779-.264,1.042-1.044,1.043q-2.535,0-5.07,0c-.779,0-1.042-.264-1.042-1.044q0-6.91,0-13.821c0-.781.262-1.041,1.043-1.042q2.535,0,5.07,0c.78,0,1.042.263,1.043,1.043q0,3.48,0,6.96" transform="translate(-4.996 -153.406)" fill="#0171e7"/>
        <path id="Path_200503" data-name="Path 200503" d="M204.583,184.85q0,3.455,0,6.91c0,.78-.264,1.042-1.044,1.043q-2.535,0-5.07,0c-.779,0-1.042-.264-1.042-1.044q0-6.91,0-13.82c0-.781.262-1.042,1.043-1.043q2.535,0,5.07,0c.78,0,1.042.263,1.043,1.043q0,3.455,0,6.91" transform="translate(-171.211 -153.407)" fill="#0171e7"/>
        <path id="Path_200504" data-name="Path 200504" d="M101.588,229.567c0-1.259,0-2.519,0-3.778,0-.686.282-.97.963-.972q2.61-.007,5.219,0c.685,0,.971.283.972.963q.006,3.8,0,7.606c0,.685-.284.97-.964.972q-2.609.007-5.219,0c-.685,0-.968-.284-.971-.964-.005-1.276,0-2.552,0-3.828" transform="translate(-88.098 -194.963)" fill="#0171e7"/>
      </g>
    </g>
  </g>
</svg>
