<svg id="star" xmlns="http://www.w3.org/2000/svg" width="13.599" height="13.599" viewBox="0 0 13.599 13.599">
  <g id="Group_8404" data-name="Group 8404">
    <path id="Path_3302" data-name="Path 3302" d="M13.555,5.211a.971.971,0,0,0-.806-.687l-3.614-.5L7.7.607a.981.981,0,0,0-1.811,0L4.463,4.024l-3.614.5A.984.984,0,0,0,.33,6.233L3.053,8.662l-.559,3.81a.983.983,0,0,0,1.523.958L6.8,11.538l2.782,1.894a.982.982,0,0,0,1.524-.958l-.559-3.812,2.723-2.428A.976.976,0,0,0,13.555,5.211Z" transform="translate(0 -0.003)" fill="#42b093"/>
  </g>
</svg>
